<?xml version="1.0" standalone="no"?>
<svg viewBox="0 0 200 200" xmlns="http://www.w3.org/2000/svg">
  <path fill="#FF0066" d="M26.5,-47.2C34.9,-35.8,42.8,-29.5,42.2,-21.9C41.7,-14.3,32.8,-5.4,28.8,2.3C24.7,9.9,25.6,16.4,24.6,26.2C23.7,36,21,49.1,12.6,58.9C4.2,68.6,-9.9,75.1,-23.7,74C-37.5,73,-51,64.4,-53.6,51.8C-56.3,39.2,-48.1,22.5,-51.3,6.8C-54.5,-8.9,-69,-23.6,-70.5,-37.1C-71.9,-50.6,-60.2,-63,-46.3,-71.9C-32.3,-80.7,-16.2,-86.1,-3.6,-80.5C9,-75,18.1,-58.6,26.5,-47.2Z" transform="translate(100 100)" />
</svg>
