<svg width="30" height="30" viewBox="0 0 30 30" fill="none" xmlns="http://www.w3.org/2000/svg">
<path d="M15 0C6.70945 0 0 6.70881 0 15C0 23.2906 6.70881 30 15 30C23.2905 30 30 23.2912 30 15C30 6.70939 23.2912 0 15 0ZM15 27.6562C8.00484 27.6562 2.34375 21.9957 2.34375 15C2.34375 8.00479 8.00432 2.34375 15 2.34375C21.9952 2.34375 27.6562 8.00432 27.6562 15C27.6562 21.9952 21.9957 27.6562 15 27.6562Z" fill="#222222"/>
<path d="M20.132 18.4748L16.6573 15L20.132 11.5253C20.5896 11.0677 20.5897 10.3257 20.132 9.86804C19.6743 9.41036 18.9323 9.41042 18.4748 9.86804L15 13.3428L11.5252 9.86804C11.0677 9.41036 10.3256 9.41036 9.86796 9.86804C9.41034 10.3257 9.41035 11.0677 9.86802 11.5253L13.3427 15L9.86802 18.4748C9.41035 18.9324 9.41029 19.6744 9.86796 20.132C10.3258 20.5898 11.0677 20.5896 11.5252 20.132L15 16.6573L18.4748 20.132C18.9323 20.5896 19.6744 20.5897 20.132 20.132C20.5897 19.6743 20.5897 18.9324 20.132 18.4748Z" fill="#222222"/>
</svg>
