<svg width="24" height="24" viewBox="0 0 24 24" fill="none" xmlns="http://www.w3.org/2000/svg">
<path d="M0 12C0 18.6172 5.3828 24 12 24C18.6172 24 24 18.6172 24 12C24 5.3828 18.6163 0 12 0C5.38373 0 0 5.3828 0 12ZM22.141 12C22.141 17.591 17.592 22.141 12 22.141C6.40805 22.141 1.85902 17.591 1.85902 12C1.85902 6.40805 6.40805 1.85902 12 1.85902C17.592 1.85902 22.141 6.40899 22.141 12Z" fill="#FC6449"/>
<path d="M13.2827 6.69248L8.63518 11.34C8.27452 11.7026 8.27452 12.2881 8.63518 12.6507L13.2827 17.2982C13.6304 17.5966 14.1444 17.5966 14.492 17.2982C14.8815 16.9645 14.927 16.3771 14.5933 15.9876L10.6058 12L14.5934 8.0031C14.954 7.64057 14.954 7.05501 14.5934 6.69248C14.2308 6.33182 13.6452 6.33182 13.2827 6.69248Z" fill="#FC6449"/>
</svg>
