<svg width="46" height="39" viewBox="0 0 46 39" fill="none" xmlns="http://www.w3.org/2000/svg">
<path d="M14.7225 17.41C13.5895 17.0838 12.4566 16.9183 11.3545 16.9183C9.65266 16.9183 8.2326 17.3072 7.1315 17.7834C8.19304 13.8972 10.7432 7.19154 15.8231 6.43639C16.2936 6.36642 16.6791 6.02625 16.8075 5.56833L17.9177 1.59716C18.0113 1.26132 17.9558 0.901838 17.7643 0.610393C17.5727 0.318949 17.2649 0.124491 16.9199 0.0772038C16.545 0.0260562 16.1628 0 15.784 0C9.68644 0 3.64771 6.36449 1.09953 15.4774C-0.396284 20.8238 -0.834894 28.8617 2.84962 33.921C4.91143 36.7519 7.91945 38.2637 11.7902 38.4147C11.8061 38.4152 11.8216 38.4157 11.8375 38.4157C16.6135 38.4157 20.8485 35.1992 22.1369 30.5944C22.9065 27.8416 22.5586 24.9547 21.1564 22.4634C19.7692 20.0001 17.4844 18.2047 14.7225 17.41Z" fill="#FC6449"/>
<path d="M44.6189 22.4639C43.2317 20.0001 40.9469 18.2047 38.185 17.41C37.0521 17.0838 35.9191 16.9183 34.8175 16.9183C33.1157 16.9183 31.6951 17.3072 30.594 17.7834C31.6556 13.8972 34.2057 7.19154 39.2861 6.43639C39.7566 6.36643 40.1416 6.02625 40.2705 5.56833L41.3807 1.59716C41.4743 1.26132 41.4188 0.901838 41.2273 0.610393C41.0362 0.318949 40.7284 0.124491 40.3829 0.0772038C40.0084 0.0260562 39.6263 0 39.247 0C33.1494 0 27.1107 6.36449 24.562 15.4774C23.0667 20.8238 22.6281 28.8617 26.3131 33.9219C28.3744 36.7524 31.3829 38.2647 35.2532 38.4152C35.2691 38.4157 35.2846 38.4162 35.301 38.4162C40.0765 38.4162 44.312 35.1997 45.6004 30.5949C46.369 27.8421 46.0206 24.9547 44.6189 22.4639Z" fill="#FC6449"/>
</svg>
