<?xml version="1.0" encoding="utf-8"?>
<!-- Generator: Adobe Illustrator 24.1.0, SVG Export Plug-In . SVG Version: 6.00 Build 0)  -->
<svg version="1.1" xmlns="http://www.w3.org/2000/svg" xmlns:xlink="http://www.w3.org/1999/xlink" x="0px" y="0px"
	 viewBox="0 0 1224 792" style="enable-background:new 0 0 1224 792;" xml:space="preserve">
<style type="text/css">
	.st0{display:none;}
	.st1{display:inline;fill:#1A4921;}
	.st2{display:inline;}
	.st3{fill:#1A4921;}
	.st4{display:inline;fill:none;stroke:#1A4921;stroke-miterlimit:10;}
	.st5{display:inline;fill:#FFFFFF;}
	.st6{fill:#FFFFFF;}
	.st7{fill:none;stroke:#1A4921;stroke-miterlimit:10;}
</style>
<g id="sublayer" class="st0">
</g>
<g id="Layer_1">
	<g>
		<g>
			<g>
				<g>
					<g>
						<g>
							<g>
								<g>
									<path d="M316.2,341.2h34v-20.4h-34v-29.3h48.4v-22.7h-69c-1.1,0-2,0.9-2,2v102.4c0,1.1,0.9,2,2,2H363
										c0.9,0,1.7-0.8,1.7-1.7v-21.2h-48.4V341.2z"/>
									<path d="M451,309.2c0-26.4-21.5-40.5-37-40.5h-35.1c-0.7,0-1.3,0.6-1.3,1.3v103.4c0,0.9,0.8,1.7,1.7,1.7h19.3
										c0.9,0,1.7-0.8,1.7-1.7v-26.6l13.4-0.1l13.6,27.5c0.3,0.6,0.9,0.9,1.5,0.9h21.8L434,341.7C444.8,334.9,451,323.1,451,309.2
										z M400.2,291.4h13.7c3.8,0,14.2,4.2,14.2,17.8c0,14.1-10.7,14.8-11.1,14.8h-16.9V291.4z"/>
									<path d="M463.8,375.1h21.3c0.8,0,1.5-0.7,1.5-1.5V268.7h-21.3c-0.8,0-1.5,0.7-1.5,1.5V375.1z"/>
									<path d="M576.3,343.9c-0.7-0.7-1.8-0.7-2.5-0.1c-5.7,5.4-13.3,8.4-21.1,8.4c-17,0-30.9-14-30.5-31
										c0.3-14.3,10.6-26.7,24.7-29.3c9.8-1.9,19.7,1.1,26.5,7.5c0.7,0.7,1.9,0.6,2.6-0.1l14.5-15c-10-10.2-23.4-15.8-37.7-15.8
										c-30,0-54.3,25-53.2,55.3c1,28.5,24.9,51.4,53.5,51.2c14.4-0.1,27.9-5.8,38-16.3L576.3,343.9z"/>
									<path d="M652.2,268.2h-17.8c-0.7,0-1.4,0.5-1.6,1.2l-37,103.7c-0.3,1,0.4,2,1.4,2h20.8c0.6,0,1.2-0.4,1.4-1l7.1-19.7h33.8
										l7,19.7c0.2,0.6,0.8,1,1.4,1h20.8c1,0,1.7-1,1.4-2l-37-103.7C653.6,268.7,652.9,268.2,652.2,268.2z M633.6,334l9.7-26.6
										l9.5,26.6H633.6z"/>
									<path d="M755.8,328.3l-32-58.5c-0.3-0.5-0.9-0.9-1.5-0.9h-20.3c-0.9,0-1.7,0.8-1.7,1.7v102.9c0,0.9,0.7,1.6,1.6,1.6h19.4
										c0.9,0,1.6-0.7,1.6-1.6v-57.9l31.8,58.7c0.3,0.5,0.8,0.9,1.4,0.9h20.5c0.9,0,1.6-0.7,1.6-1.6V270.5c0-0.9-0.8-1.7-1.7-1.7
										h-19.3c-0.9,0-1.7,0.8-1.7,1.7V328.3z"/>
									<path d="M583.4,451.3c0,15-4.1,20.3-15.7,20.3c-13,0-16.6-4.4-16.6-20.3v-61.7c0-0.9-0.8-1.7-1.7-1.7h-19.3
										c-0.9,0-1.7,0.8-1.7,1.7v61.7c0,28.7,13.2,43.2,39.3,43.2c24.9,0,38.5-15.3,38.5-43.2v-61.7c0-0.9-0.8-1.7-1.7-1.7H585
										c-0.9,0-1.7,0.8-1.7,1.7V451.3z"/>
									<path d="M692.5,428.4c0-26.4-21.5-40.5-37-40.5h-34.8c-0.9,0-1.7,0.8-1.7,1.7v103.1c0,0.9,0.8,1.7,1.7,1.7h19.3
										c0.9,0,1.7-0.8,1.7-1.7V466l13.4-0.1l13.6,27.5c0.3,0.6,0.9,0.9,1.5,0.9h21.8l-16.6-33.4
										C686.3,454.1,692.5,442.3,692.5,428.4z M641.7,410.6h13.7c3.8,0,14.2,4.2,14.2,17.8c0,14.1-10.7,14.8-11.1,14.8h-16.9
										V410.6z"/>
									<path d="M769.4,438.9c2.7-5.2,4.2-11.6,4.2-18.4c0-19.5-13.8-32.5-34.3-32.5H707c-0.9,0-1.7,0.8-1.7,1.7v102.6
										c0,0.9,0.8,1.7,1.7,1.7h40.8c18.1,0,30.7-12.9,30.7-31.3C778.5,452.7,775.4,444.5,769.4,438.9z M743.3,431.2l-15.4,0.1
										v-20.7h11.3c11.5,0,11.5,6.2,11.5,9.8C750.7,428.6,749.1,430.9,743.3,431.2z M747.8,471.2h-19.9v-17.2l21.9-0.1
										c4,0.3,6,3.2,6,8.7C755.8,468.3,753.1,471.2,747.8,471.2z"/>
								</g>
							</g>
							<path d="M505.2,463.2c-0.6-0.6-1.7-0.7-2.3-0.1c-5.7,5.4-13.4,8.5-21.2,8.5c-17,0-30.9-14-30.5-31
								c0.3-14.3,10.6-26.7,24.7-29.3c9.9-1.9,19.8,1.1,26.6,7.6c0.7,0.6,1.7,0.6,2.3-0.1l14.6-15.1c-10-10.2-23.4-15.8-37.7-15.8
								c-30,0-54.3,25-53.2,55.3c1,28.5,24.9,51.4,53.5,51.2c14.4-0.1,27.9-5.8,38-16.3L505.2,463.2z"/>
						</g>
						<path d="M257.1,269.8l-23.4,47l-23.2-46.6c-0.3-0.6-0.9-1-1.5-1l-20.4-0.4c-1,0-1.8,0.8-1.8,1.8v102.8c0,0.9,0.8,1.7,1.7,1.7
							h19.3c0.9,0,1.7-0.8,1.7-1.7v-54l14,28.2c1.5,3,4.2,5.3,7.4,6.1c5.2,1.3,10.4-1.3,12.7-5.9l14.3-28.6v54.2
							c0,0.9,0.8,1.7,1.7,1.7H279c0.9,0,1.7-0.8,1.7-1.7V270.6c0-1-0.8-1.8-1.8-1.8h-20.3C258,268.8,257.4,269.2,257.1,269.8z"/>
					</g>
				</g>
				<g>
					<path d="M428.4,555.5h3.2v-16.6h-3.2v-3.6H440v3.6h-3.8v16.6h7.7v-3.8h4.2v7.4h-19.7V555.5z"/>
					<path d="M448.9,555.5h2.8l6.7-16.6h-3.3v-3.6h9.8l8.2,20.3h2.9v3.6h-10.7v-3.6h3.1l-1.3-3.3h-9.8l-1.3,3.3h3.1v3.6h-10.4V555.5
						z M465.9,548.6l-3.5-9l-3.5,9H465.9z"/>
					<path d="M477.5,555.5h3.2v-16.6h-3.2v-3.6h7.9l11.4,16.5v-12.9h-3.2v-3.6h10.7v3.6h-3.2v20.3h-4L485,541.8v13.6h3.2v3.6h-10.7
						V555.5z"/>
					<path d="M507.2,555.5h3.2v-16.6h-3.2v-3.6h11.3c8.7,0,12.8,4.9,12.8,11.9c0,7.1-4.2,11.9-12.8,11.9h-11.3V555.5z M518.5,555.5
						c5.6,0,8.1-3.1,8.1-8.3c0-5.2-2.5-8.3-8.1-8.3H515v16.6H518.5z"/>
					<path d="M534.6,558.3v-6h4.1v3.1c0.9,0.2,2.3,0.5,4.1,0.5c2.5,0,4.9-0.6,4.9-3c0-5.4-12.8-2.5-12.8-11.3c0-5,4.2-6.9,8.9-6.9
						c2.7,0,5.6,0.6,7.6,1.3v5.8h-4.2v-3.2c-0.8-0.1-2.1-0.3-3.3-0.3c-2.3,0-4.7,0.7-4.7,2.9c0,5.1,12.8,2.3,12.8,11.4
						c0,5.2-4.3,6.9-9,6.9C539.9,559.5,536.9,558.8,534.6,558.3z"/>
					<path d="M555.2,547.3c0-7.9,5.3-12.5,12.7-12.5c3.8,0,7.4,1.2,8.9,1.9v6.9h-4.3v-4.4c-1.1-0.3-2.8-0.6-4.3-0.6
						c-4.9,0-8.3,3-8.3,8.5c0,5.6,3.6,8.6,8.5,8.6c3.3,0,6.2-1.3,8.3-2.5v4.3c-1.6,0.9-4.7,2.1-8.7,2.1
						C560.2,559.5,555.2,555,555.2,547.3z"/>
					<path d="M578.5,555.5h2.8l6.7-16.6h-3.3v-3.6h9.8l8.2,20.3h2.9v3.6h-10.7v-3.6h3.1l-1.3-3.3H587l-1.3,3.3h3.1v3.6h-10.4V555.5z
						 M595.4,548.6l-3.5-9l-3.5,9H595.4z"/>
					<path d="M607,555.5h3.2v-16.6H607v-3.6h11.1c7.1,0,9.8,3.9,9.8,7.8s-2.7,7.8-9.8,7.8h-3.4v4.7h4v3.6H607V555.5z M614.8,547.1
						h3.5c3.8,0,5-2.1,5-4.2s-1.2-4.2-5-4.2h-3.5V547.1z"/>
					<path d="M630.2,555.5h3.2v-16.6h-3.2v-3.6h19.7v7h-4.2v-3.4H638v6.5h9v3.6h-9v6.6h7.8v-3.6h4.2v7.2h-19.8V555.5z"/>
					<path d="M661.7,547.3c0-7.9,5.3-12.5,12.7-12.5c3.8,0,7.4,1.2,8.9,1.9v6.9H679v-4.4c-1.1-0.3-2.8-0.6-4.3-0.6
						c-4.9,0-8.3,3-8.3,8.5c0,5.6,3.6,8.6,8.5,8.6c3.3,0,6.2-1.3,8.3-2.5v4.3c-1.6,0.9-4.7,2.1-8.7,2.1
						C666.7,559.5,661.7,555,661.7,547.3z"/>
					<path d="M689,551v-12.1h-3.2v-3.6h11v3.6h-3.2v11.7c0,3.6,2.4,4.9,5.3,4.9s5.3-1.3,5.3-5v-11.7h-3.3v-3.6h10.8v3.6h-3.2v11.8
						c0,5.6-3.7,9-9.7,9C693.7,559.5,689,557.2,689,551z"/>
					<path d="M714.1,555.5h3.2v-16.6h-3.2v-3.6h11.5c7.1,0,9.7,3.9,9.7,7.5c0,2.8-1.6,5.3-4.8,6.4l3.6,6.3h2.9v3.6h-6l-4.9-8.7h-4.3
						v5.1h3.2v3.6h-11V555.5z M725.7,546.8c3.8,0,5.1-1.9,5.1-4c0-2.1-1.3-4-5.1-4h-3.8v8H725.7z"/>
					<path d="M739.7,555.5h3.2v-16.6h-3.2v-3.6h11.9c5.3,0,8.9,2.3,8.9,6.2c0,2.3-1.2,4.4-4.5,5.4c3.6,0.9,5.2,3.1,5.2,5.8
						c0,3.9-3.2,6.4-9.1,6.4h-12.4V555.5z M751.3,545.2c3,0,4.7-1.2,4.7-3.3c0-2.1-1.7-3.2-4.4-3.2h-4.2v6.5H751.3z M752,555.5
						c2.9,0,4.7-1.2,4.7-3.4c0-2.1-1.6-3.4-4.8-3.4h-4.5v6.8H752z"/>
					<path d="M764.4,555.5h3.2v-16.6h-3.2v-3.6h11v3.6h-3.2v16.6h3.2v3.6h-11V555.5z"/>
					<path d="M778.7,555.5h3.2v-16.6h-3.2v-3.6h7.9l11.4,16.5v-12.9h-3.2v-3.6h10.7v3.6h-3.2v20.3h-4l-12.1-17.2v13.6h3.2v3.6h-10.7
						V555.5z"/>
					<path d="M807.8,547.3c0-7.6,4.7-12.5,13-12.5c3.8,0,7.4,1.1,9.4,2.1v6.2h-4.3v-3.7c-1.4-0.4-3.2-0.8-5-0.8
						c-5.4,0-8.5,3.3-8.5,8.7c0,5.8,3.5,8.5,8.6,8.5c1.7,0,3.4-0.4,4.9-0.9v-5.1h-5v-3.5h11.2v3.5h-2v7.4c-1.8,1-5.2,2.3-9.4,2.3
						C813,559.5,807.8,555.2,807.8,547.3z"/>
					<path d="M843.3,555.5h3.2v-16.6h-3.2v-3.6h11.1c7.1,0,9.8,3.9,9.8,7.8s-2.7,7.8-9.8,7.8H851v4.7h4v3.6h-11.8V555.5z M851,547.1
						h3.5c3.8,0,5-2.1,5-4.2s-1.2-4.2-5-4.2H851V547.1z"/>
					<path d="M866.5,555.5h3.2v-16.6h-3.2v-3.6H878c7.1,0,9.7,3.9,9.7,7.5c0,2.8-1.6,5.3-4.8,6.4l3.6,6.3h2.9v3.6h-6l-4.9-8.7h-4.3
						v5.1h3.2v3.6h-11V555.5z M878.1,546.8c3.8,0,5.1-1.9,5.1-4c0-2.1-1.3-4-5.1-4h-3.8v8H878.1z"/>
					<path d="M891.6,547.2c0-7.3,5.2-12.4,12.4-12.4c7.2,0,12.4,5.1,12.4,12.4c0,7.3-5.2,12.4-12.4,12.4
						C896.8,559.5,891.6,554.5,891.6,547.2z M911.8,547.2c0-5.3-3.3-8.6-7.8-8.6c-4.5,0-7.8,3.3-7.8,8.6c0,5.4,3.3,8.6,7.8,8.6
						C908.5,555.7,911.8,552.5,911.8,547.2z"/>
					<path d="M919.1,555.5h3.2v-16.6h-3.2v-3.6h19.4v7.3h-4.2v-3.7h-7.4v7h8.5v3.7h-8.5v5.9h3.4v3.6h-11.2V555.5z"/>
					<path d="M940.9,555.5h3.2v-16.6h-3.2v-3.6h19.7v7h-4.2v-3.4h-7.7v6.5h9v3.6h-9v6.6h7.8v-3.6h4.2v7.2h-19.8V555.5z"/>
					<path d="M964.3,558.3v-6h4.1v3.1c0.9,0.2,2.3,0.5,4.1,0.5c2.5,0,4.9-0.6,4.9-3c0-5.4-12.8-2.5-12.8-11.3c0-5,4.2-6.9,8.9-6.9
						c2.7,0,5.6,0.6,7.6,1.3v5.8h-4.2v-3.2c-0.8-0.1-2.1-0.3-3.3-0.3c-2.3,0-4.7,0.7-4.7,2.9c0,5.1,12.8,2.3,12.8,11.4
						c0,5.2-4.3,6.9-9,6.9C969.6,559.5,966.5,558.8,964.3,558.3z"/>
					<path d="M985.1,558.3v-6h4.1v3.1c0.9,0.2,2.3,0.5,4.1,0.5c2.5,0,4.9-0.6,4.9-3c0-5.4-12.8-2.5-12.8-11.3c0-5,4.2-6.9,8.9-6.9
						c2.7,0,5.6,0.6,7.6,1.3v5.8h-4.2v-3.2c-0.8-0.1-2.1-0.3-3.3-0.3c-2.3,0-4.7,0.7-4.7,2.9c0,5.1,12.8,2.3,12.8,11.4
						c0,5.2-4.3,6.9-9,6.9C990.5,559.5,987.4,558.8,985.1,558.3z"/>
					<path d="M1005.9,555.5h3.2v-16.6h-3.2v-3.6h11v3.6h-3.2v16.6h3.2v3.6h-11V555.5z"/>
					<path d="M1019.6,547.2c0-7.3,5.2-12.4,12.4-12.4c7.2,0,12.4,5.1,12.4,12.4c0,7.3-5.2,12.4-12.4,12.4
						C1024.7,559.5,1019.6,554.5,1019.6,547.2z M1039.7,547.2c0-5.3-3.3-8.6-7.8-8.6c-4.5,0-7.8,3.3-7.8,8.6c0,5.4,3.3,8.6,7.8,8.6
						C1036.4,555.7,1039.7,552.5,1039.7,547.2z"/>
					<path d="M1047.1,555.5h3.2v-16.6h-3.2v-3.6h7.9l11.4,16.5v-12.9h-3.2v-3.6h10.7v3.6h-3.2v20.3h-4l-12.1-17.2v13.6h3.2v3.6
						h-10.7V555.5z"/>
					<path d="M1074.5,555.5h2.8l6.7-16.6h-3.3v-3.6h9.8l8.2,20.3h2.9v3.6h-10.7v-3.6h3.1l-1.3-3.3h-9.8l-1.3,3.3h3.1v3.6h-10.4
						V555.5z M1091.4,548.6l-3.5-9l-3.5,9H1091.4z"/>
					<path d="M1103.1,555.5h3.2v-16.6h-3.2v-3.6h11.6v3.6h-3.8v16.6h7.7v-3.8h4.2v7.4h-19.7V555.5z"/>
					<path d="M1125.2,558.3v-6h4.1v3.1c0.9,0.2,2.3,0.5,4.1,0.5c2.5,0,4.9-0.6,4.9-3c0-5.4-12.8-2.5-12.8-11.3c0-5,4.2-6.9,8.9-6.9
						c2.7,0,5.6,0.6,7.6,1.3v5.8h-4.2v-3.2c-0.8-0.1-2.1-0.3-3.3-0.3c-2.3,0-4.7,0.7-4.7,2.9c0,5.1,12.8,2.3,12.8,11.4
						c0,5.2-4.3,6.9-9,6.9C1130.5,559.5,1127.4,558.8,1125.2,558.3z"/>
				</g>
			</g>
			<path d="M137.9,268.2h-17.8c-0.7,0-1.4,0.5-1.6,1.2l-37,103.7c-0.3,1,0.4,2,1.4,2h20.8c0.6,0,1.2-0.4,1.4-1l7.1-19.7H146l7,19.7
				c0.2,0.6,0.8,1,1.4,1h20.8c1,0,1.7-1,1.4-2l-37-103.7C139.3,268.7,138.7,268.2,137.9,268.2z M119.4,334l9.7-26.6l9.5,26.6H119.4z
				"/>
		</g>
		<path d="M1142.6,449.8c0-0.4-0.1-0.8-0.1-1.2c-0.9-6.3-5.6-11.5-11.8-13.3l-13.6-4.2c-7.3-7.3-16.5-14.7-26.9-19.3l-41.2-12.6
			l-0.1-0.1c-9.8-11.7-27.2-16.4-29.1-16.9l-39.4,2.8l-8.2,5.1l-10.8-3.7l-8.7-0.8l-8.1,1.5l-10.5,6.1l-5.9,7V361
			c0,0,14.6-7.3,16.7-19.4c0,0,5.7-8.6,31.8-5.4c19.1,2.3,34.8-4.2,44.7-10.1c4.5,1.6,9.5,2.1,14.3,2c6-0.1,12.6-0.9,17.5-4.3
			c3.5,0.1,7-0.3,10.3-1.1c3.9-1,7.6-3.9,6.5-8.3c-0.7-2.8-2.8-4.5-5.3-5.4c-0.9-2.8-3.4-4.6-6.3-5.8c0.7-5.5-3.7-9.2-8.8-10.2
			c-3.4-0.7-6.9-1.1-10.5-1.4c0.5-0.9,0.7-2,0.3-3.2c-1.1-3.6-4.9-3.7-7.9-4.2c-3.4-0.5-6-2.3-8.8-4.2c-2.5-1.8-5.2-2.7-8.3-2.2
			c-0.9,0.2-1.8,0.4-2.7,0.8c-2.1-2.2-5-4-7.3-5.2c-1.7-0.9-3.5-1.7-5.4-2.5c2.5-2.3,3.5-5.8,0.8-9c-1.9-2.3-4.7-3-7.6-3.2
			c-1-0.1-1.9-0.1-2.9-0.1c-0.2-1.6-0.9-3.1-2.5-4.3c-1.1-0.8-2.4-1.5-3.8-2c-1.1-2.3-2.7-4.3-5.3-5.1c-1.9-0.6-3.9-0.5-5.9-0.2
			c-1.2-2.6-3.3-4.8-5.9-6.1c-2.3-1.2-4.8-1.6-7.4-1.2c-2.8,0.3-5.5,1.4-8.3,1.5c-2.9,0-5.6-1.2-8.5-1.2c-2.5,0-5,0.6-7.4,1.3
			c-0.5,0.2-1.1,0.4-1.6,0.5c-0.2-4-1.7-7.9-6.3-8.8c-1.6-0.3-3.2,0.1-4.7,0.4c-1.8,0.4-3.4,0.4-5.2,0.1c-3-0.5-5.9-1.4-8.9-0.9
			c-2.4,0.4-4.3,1.5-5.8,3.4c-0.9,1.1-1.5,2.2-3,2.4c-1.1,0.2-2.3,0.1-3.4,0c-2.6-0.1-4.9,0.2-7.2,1.5c-1.3,0.8-2.4,1.4-3.9,1.6
			c-1.3,0.1-2.6-0.1-3.9,0.1c-2.5,0.3-4.3,1.6-5.7,3.6c-1.2,1.8-1.8,4.3-3.8,5.4c-2,1.1-4.2,1.4-5.8,3.1c-1,1.1-1.4,2.5-2.3,3.7
			c-0.8,1-2,1.5-3,2.3c-3.9,2.9-5.6,7.5-6.6,12.2c-0.3,1.3-0.5,2.7-0.7,4c-0.1,1-0.1,2.5-0.9,3.2c-1.7,1.6-5.5,0.2-7.5,0.3
			c-9.7,0.8-13.8,9.8-19.3,16.7c-1.4,0-2.8-0.1-4.2-0.1c-2.5-0.1-5.1-0.3-7.6,0.2c-2.2,0.5-4.1,1.7-5.5,3.4
			c-0.7,0.8-1.3,1.7-1.8,2.6c-0.4,0.7-0.8,2.3-1.5,2.7c-0.7,0.4-2.1,0.1-3,0.3c-1.1,0.3-2.1,0.7-3,1.3c-1.6,1.1-2.9,2.8-3.4,4.7
			c-1,3.8,0.9,7.5,4.2,9.3c0.1,3,0.9,6,2.8,8.1c1.6,1.8,4.2,2.5,6.5,3c0.1,0,0.3,0,0.4,0.1c0.7,1.3,1.7,2.5,3.1,3.3
			c3.5,1.9,8.2,2,12.1,2.2c4.4,0.2,9-0.1,13.2-1.5c0.9-0.3,1.8-0.6,2.7-1c5.1,3.3,11.5,6.5,18.2,7.5c12.1,1.9,16-4.9,16-4.9l21.1,5
			c19.7,4.3,19.9,22.9,19.9,22.9V405l-49.8,4.5c-15.2,8.3-28.6,19.6-39.3,33.1l-4.8,1.6c-14.1,4.8-19.5,22.3-10,33.7
			c0.8,0.9,1.6,1.8,2.5,2.5c15.5,12.8,44,28.4,91.8,29.8c1.7,0,3.4,0.1,5,0.1c24.1,0,49.8-4.8,70.3-13.3c2.1-0.8,4-1.6,5.8-2.4
			l0.4-0.2c23.2-9.7,25.3-9.6,60.3-8c14.3,0.6,62.8,0.9,89.7-22.6C1140.9,460.4,1143,455.2,1142.6,449.8z M1017.3,392
			c0,0,15.9,4.1,23.9,13.6l-0.1,9.5l6.4,6.4l12.2,5l-11.6,16.9l-21,3.6l-14.9-10l-3.4-16.1l3.6-1.4l-1.5-4l-8.3-4.4l-1.1-5.3
			l4.6-2.6l-1.2-3.2l-12.8-5.8L1017.3,392z M995.7,432.1l9.6,7.7l-13.2,3.2l-7.6,13.2l-10.5,4.1l-13.5-3l-6.3-9l8.4-1.8l4.7-2.8
			l0.7-4.7c5.8-5,16.6-7.5,16.6-7.5L995.7,432.1z M949,397.2l7.3,0.4l5.5,3.6l7.2-2.8l10.9,3.9l4.1,9.5l-0.6,10.7l-11.4,4l-11.2-2.1
			l-0.3-12.6l-8-8.6l-4.9,3.8l-5.6-5.2L949,397.2z M909.5,420.3l9.5-4.2l10.6,1.8l5.8-2.9l7.3,0.4l6.4,5.4l-6.6,6.1l-15.6,2.3
			l-3.4,5.1l4.3,6.7l-11.4,0.8l-9.6-2.8l-4.8-9.8L909.5,420.3z M1130.9,457.1c-16.4,14.3-47.5,21.9-83.3,20.3
			c-39.1-1.7-41.5-0.7-64.2,8.7c-1.9,0.8-3.9,1.6-6.1,2.5c-20.8,8.6-47.3,13.2-71.6,12.5c-45.2-1.3-71.9-15.8-86.2-27.7
			c-4.4-3.6-5.9-9.8-3.9-15c3.1,3.7,8.5,9.2,17.1,14.8c13.1,8.5,36.4,18.9,73.3,20c23,0.7,48.5-3.8,68.4-11.9
			c2.2-0.9,4.2-1.7,6.1-2.5c23.2-9.6,26.7-11.1,67.6-9.3c29.6,1.3,68.7-4.3,83.2-24.3c1.4,1.4,2.3,3.2,2.5,5.3
			C1133.7,453,1132.8,455.4,1130.9,457.1z"/>
	</g>
</g>
</svg>
