<?xml version="1.0" encoding="utf-8"?>
<!-- Generator: Adobe Illustrator 24.1.0, SVG Export Plug-In . SVG Version: 6.00 Build 0)  -->
<svg version="1.1" xmlns="http://www.w3.org/2000/svg" xmlns:xlink="http://www.w3.org/1999/xlink" x="0px" y="0px"
	 viewBox="0 0 216 216" style="enable-background:new 0 0 216 216;" xml:space="preserve">
<style type="text/css">
	.st0{display:none;}
	.st1{display:inline;fill:#1A4921;}
	.st2{display:inline;}
	.st3{fill:#1A4921;}
	.st4{display:inline;fill:none;stroke:#1A4921;stroke-miterlimit:10;}
	.st5{display:inline;fill:#FFFFFF;}
	.st6{fill:#FFFFFF;}
	.st7{fill:none;stroke:#1A4921;stroke-miterlimit:10;}
</style>
<g id="sublayer" class="st0">
</g>
<g id="Layer_1">
	<path class="st6" d="M77.7,130.2l15.6-1.4v-12.5c0,0,0,0,0,0l0,0v0l0,0.1c0-0.8-0.5-4.4-4.9-5.4l0,0l0,0l-6.5-1.5
		c-1.5,1-3.5,1.7-6,1.7c-0.7,0-1.5-0.1-2.3-0.2c-2.3-0.4-4.8-1.2-7.2-2.6c-1.6,0.4-3.2,0.6-5.1,0.6c-0.4,0-0.7,0-1.1,0l-0.3,0
		c-1.8-0.1-4.2-0.2-6.4-1.4c-0.6-0.4-1.2-0.8-1.7-1.3c-1.1-0.3-2.4-0.9-3.4-2.1c-1-1.1-1.6-2.4-2-3.9c-1.8-1.8-2.5-4.5-1.8-7
		c0.5-1.7,1.5-3.2,3-4.2c0.7-0.5,1.4-0.8,2.1-1c0.2-0.4,0.5-0.7,0.8-1.1c1.2-1.4,2.8-2.4,4.5-2.8c0.7-0.2,1.5-0.2,2.3-0.2
		c0.4,0,0.8,0,1.1,0c0.1,0,0.1,0,0.2,0c0,0,0,0,0-0.1c1.9-2.7,4.5-6.3,9.5-6.7c0,0,0,0,0,0c0.7-3.3,2.1-5.6,4.2-7.2
		c0.2-0.1,0.4-0.3,0.5-0.4c0.2-0.4,0.6-1,1.1-1.6c1-1,2.1-1.5,2.9-1.8c0.2-0.3,0.4-0.7,0.6-1.1c0.1-0.1,0.2-0.2,0.3-0.3l-8.3-23.2
		c-0.2-0.7-0.9-1.1-1.6-1.1H50.5c-0.7,0-1.4,0.5-1.6,1.1L12.5,143.5c-0.3,0.9,0.4,1.9,1.4,1.9h20.5c0.6,0,1.2-0.4,1.4-1l7-19.3h33.2
		L77.7,130.2z"/>
	<path class="st6" d="M124.1,64.4c1.1,0.3,2.6,1.1,3.8,2.7c0.4,0.2,0.8,0.5,1.2,0.8c0.4,0.3,0.8,0.7,1.1,1.1c2.5,0.4,4,1.6,4.8,2.6
		c1.1,1.3,1.6,2.7,1.6,4.2c0.4,0.3,0.8,0.5,1.2,0.8c0.2,0,0.5,0,0.7,0c0.7,0,1.5,0.1,2.2,0.3c4.3-6.7,11.2-11.7,19.4-13.2
		c9.6-1.8,19.3,1.1,26,7.4c0.7,0.7,1.8,0.6,2.5-0.1L203,56.3c-9.9-10-23-15.5-37-15.5c-18.1,0-34.1,9.3-43.4,23.3c0,0,0,0,0,0
		C123.1,64.2,123.6,64.3,124.1,64.4z"/>
	<path class="st6" d="M186.7,114.7c-5.6,5.3-13.1,8.2-20.7,8.2c-11.9,0-22.2-7-27-17c-3.5,1.6-8,2.9-13.1,2.9
		c-1.2,0-2.5-0.1-3.7-0.2c-1.4-0.2-2.7-0.3-3.9-0.3c-0.8,0-1.5,0-2.1,0.1c1.4,4.5,3.3,8.7,5.8,12.5l0,0l0.8-0.5l1-0.1l16-1.1l0.7,0
		l0.6,0.2c1.4,0.4,8.4,2.4,13.1,7.3l15.7,4.8l0.2,0.1l0.2,0.1c3.8,1.7,7.7,4.4,11.4,8l4.6,1.4c0.1,0,0.2,0.1,0.3,0.1
		c6.2-2.7,12-6.6,16.9-11.7l-14.4-14.6C188.5,114.1,187.4,114,186.7,114.7z"/>
	<path class="st6" d="M189.9,150.3c-0.4-2.6-2.3-4.7-4.8-5.4l-5.5-1.7c-3-2.9-6.7-6-10.9-7.9l-16.8-5.1l-0.1-0.1
		c-4-4.7-11-6.7-11.8-6.9l-16,1.1l-3.3,2.1l-4.4-1.5l-3.5-0.3l-3.3,0.6l-4.3,2.5l-2.4,2.8v-15.9c0,0,5.9-3,6.8-7.9
		c0,0,2.3-3.5,12.9-2.2c7.8,1,14.1-1.7,18.2-4.1c1.8,0.6,3.8,0.8,5.8,0.8c2.5,0,5.1-0.4,7.1-1.8c1.4,0,2.9-0.1,4.2-0.4
		c1.6-0.4,3.1-1.6,2.6-3.4c-0.3-1.1-1.1-1.8-2.1-2.2c-0.4-1.1-1.4-1.9-2.6-2.4c0.3-2.2-1.5-3.7-3.6-4.2c-1.4-0.3-2.8-0.4-4.3-0.6
		c0.2-0.4,0.3-0.8,0.1-1.3c-0.5-1.5-2-1.5-3.2-1.7c-1.4-0.2-2.4-0.9-3.6-1.7c-1-0.7-2.1-1.1-3.4-0.9c-0.4,0.1-0.7,0.2-1.1,0.3
		c-0.9-0.9-2.1-1.6-3-2.1c-0.7-0.4-1.4-0.7-2.2-1c1-1,1.4-2.4,0.3-3.7c-0.8-0.9-1.9-1.2-3.1-1.3c-0.4,0-0.8,0-1.2,0
		c-0.1-0.7-0.4-1.3-1-1.8c-0.5-0.3-1-0.6-1.6-0.8c-0.4-0.9-1.1-1.7-2.2-2.1c-0.8-0.2-1.6-0.2-2.4-0.1c-0.5-1.1-1.3-2-2.4-2.5
		c-0.9-0.5-2-0.6-3-0.5c-1.1,0.1-2.2,0.6-3.4,0.6c-1.2,0-2.3-0.5-3.5-0.5c-1,0-2,0.2-3,0.5c-0.2,0.1-0.4,0.1-0.7,0.2
		c-0.1-1.6-0.7-3.2-2.5-3.6c-0.6-0.1-1.3,0-1.9,0.2c-0.7,0.2-1.4,0.2-2.1,0c-1.2-0.2-2.4-0.6-3.6-0.4c-1,0.1-1.8,0.6-2.4,1.4
		c-0.4,0.5-0.6,0.9-1.2,1c-0.5,0.1-0.9,0-1.4,0c-1.1-0.1-2,0.1-2.9,0.6c-0.5,0.3-1,0.6-1.6,0.6c-0.5,0-1.1,0-1.6,0
		c-1,0.1-1.7,0.6-2.3,1.5c-0.5,0.7-0.7,1.7-1.6,2.2c-0.8,0.5-1.7,0.6-2.4,1.3c-0.4,0.4-0.6,1-0.9,1.5c-0.3,0.4-0.8,0.6-1.2,0.9
		c-1.6,1.2-2.3,3.1-2.7,4.9c-0.1,0.5-0.2,1.1-0.3,1.6c-0.1,0.4,0,1-0.4,1.3c-0.7,0.6-2.2,0.1-3.1,0.1c-4,0.3-5.6,4-7.9,6.8
		c-0.6,0-1.1,0-1.7,0c-1,0-2.1-0.1-3.1,0.1c-0.9,0.2-1.7,0.7-2.2,1.4c-0.3,0.3-0.5,0.7-0.7,1c-0.2,0.3-0.3,1-0.6,1.1
		C52,92,51.4,91.9,51.1,92c-0.4,0.1-0.9,0.3-1.2,0.5c-0.7,0.5-1.2,1.1-1.4,1.9c-0.4,1.5,0.4,3.1,1.7,3.8c0,1.2,0.4,2.4,1.1,3.3
		c0.7,0.7,1.7,1,2.6,1.2c0.1,0,0.1,0,0.2,0c0.3,0.5,0.7,1,1.3,1.3c1.4,0.8,3.3,0.8,4.9,0.9c1.8,0.1,3.7-0.1,5.4-0.6
		c0.4-0.1,0.7-0.3,1.1-0.4c2.1,1.3,4.7,2.6,7.4,3.1c4.9,0.8,6.5-2,6.5-2l8.6,2c8,1.8,8.1,9.3,8.1,9.3v16.2l-20.2,1.8
		c-6.2,3.4-11.6,8-16,13.5l-2,0.7c-5.7,1.9-7.9,9.1-4.1,13.7c0.3,0.4,0.7,0.7,1,1c6.3,5.2,17.9,11.6,37.3,12.1c0.7,0,1.4,0,2.1,0
		c9.8,0,20.2-2,28.6-5.4c0.8-0.3,1.6-0.7,2.3-1l0.2-0.1c9.5-3.9,10.3-3.9,24.5-3.3c5.8,0.3,25.6,0.4,36.5-9.2
		c1.7-1.4,2.5-3.5,2.4-5.7C190,150.6,190,150.4,189.9,150.3z M139,127.3c0,0,6.5,1.7,9.7,5.5l0,3.8l2.6,2.6l5,2l-4.7,6.9l-8.5,1.5
		l-6.1-4.1l-1.4-6.5l1.5-0.6l-0.6-1.6L133,135l-0.4-2.1l1.9-1.1l-0.5-1.3l-5.2-2.3L139,127.3z M130.2,143.6l3.9,3.1l-5.4,1.3
		l-3.1,5.4l-4.3,1.7l-5.5-1.2l-2.6-3.7l3.4-0.7l1.9-1.1l0.3-1.9c2.4-2.1,6.8-3.1,6.8-3.1L130.2,143.6z M111.2,129.3l3,0.2l2.2,1.4
		l2.9-1.1l4.4,1.6l1.7,3.9l-0.3,4.3l-4.6,1.6l-4.6-0.8l-0.1-5.1l-3.3-3.5l-2,1.5l-2.3-2.1L111.2,129.3z M95.1,138.8l3.9-1.7l4.3,0.7
		l2.4-1.2l3,0.2l2.6,2.2l-2.7,2.5l-6.3,0.9l-1.4,2.1l1.8,2.7l-4.6,0.3l-3.9-1.1l-1.9-4L95.1,138.8z M185.2,153.7
		c-6.7,5.8-19.3,8.9-33.9,8.3c-15.9-0.7-16.9-0.3-26.1,3.5c-0.8,0.3-1.6,0.7-2.5,1c-8.5,3.5-19.2,5.4-29.1,5.1
		c-18.4-0.5-29.2-6.4-35.1-11.3c-1.8-1.5-2.4-4-1.6-6.1c1.3,1.5,3.5,3.7,7,6c5.3,3.5,14.8,7.7,29.8,8.1c9.3,0.3,19.7-1.5,27.8-4.9
		c0.9-0.4,1.7-0.7,2.5-1c9.4-3.9,10.9-4.5,27.5-3.8c12,0.5,27.9-1.8,33.8-9.9c0.6,0.6,0.9,1.3,1,2.1
		C186.4,152.1,186,153,185.2,153.7z"/>
</g>
</svg>
