<svg width="24" height="29" viewBox="0 0 24 29" fill="none" xmlns="http://www.w3.org/2000/svg">
<path d="M22.0742 18.748C20.6048 18.748 19.1621 18.4745 17.7949 17.9368C17.125 17.6649 16.3014 17.9143 15.8925 18.4141L13.194 20.8385C10.0644 18.8504 8.13667 16.5569 6.48892 12.8603L8.4661 9.73245C8.97979 9.12193 9.16404 8.23009 8.94329 7.3933C8.48954 5.75765 8.25904 4.04144 8.25904 2.29199C8.2591 1.02818 7.39517 0 6.3333 0H1.92581C0.863935 0 0 1.02818 0 2.29192C0 16.7777 9.90235 28.5625 22.0742 28.5625C23.1361 28.5625 24 27.5343 24 26.2706V21.0399C23.9999 19.7762 23.136 18.748 22.0742 18.748Z" fill="white"/>
</svg>
