<svg width="24" height="24" viewBox="0 0 24 24" fill="none" xmlns="http://www.w3.org/2000/svg">
<g clip-path="url(#clip0)">
<path d="M24 12C24 5.3828 18.6172 -2.35289e-07 12 -5.24537e-07C5.3828 -8.13784e-07 -2.35289e-07 5.3828 -5.24537e-07 12C-8.13784e-07 18.6172 5.38373 24 12 24C18.6163 24 24 18.6172 24 12ZM1.85902 12C1.85902 6.40898 6.40805 1.85901 12 1.85902C17.592 1.85902 22.141 6.40898 22.141 12C22.141 17.592 17.592 22.141 12 22.141C6.40805 22.141 1.85902 17.591 1.85902 12Z" fill="#FC6449"/>
<path d="M10.7173 17.3075L15.3648 12.66C15.7255 12.2974 15.7255 11.7119 15.3648 11.3493L10.7173 6.70177C10.3696 6.40341 9.8556 6.40341 9.50798 6.70177C9.1185 7.03547 9.07298 7.62291 9.40668 8.01239L13.3942 12L9.40663 15.9969C9.04598 16.3594 9.04598 16.945 9.40663 17.3075C9.76917 17.6682 10.3548 17.6682 10.7173 17.3075Z" fill="#FC6449"/>
</g>
<defs>
<clipPath id="clip0">
<rect width="24" height="24" fill="white" transform="translate(24) rotate(90)"/>
</clipPath>
</defs>
</svg>
